<?xml version="1.0" standalone="no"?>
<!DOCTYPE svg PUBLIC "-//W3C//DTD SVG 20010904//EN"
 "http://www.w3.org/TR/2001/REC-SVG-20010904/DTD/svg10.dtd">
<svg version="1.0" xmlns="http://www.w3.org/2000/svg"
 width="515.000000pt" height="501.000000pt" viewBox="0 0 515.000000 501.000000"
 preserveAspectRatio="xMidYMid meet">

<g transform="translate(0.000000,501.000000) scale(0.100000,-0.100000)"
fill="#000000" stroke="none">
<path d="M0 2505 l0 -2505 2575 0 2575 0 0 2505 0 2505 -2575 0 -2575 0 0
-2505z m1250 1679 c36 -8 153 -33 260 -55 107 -22 200 -46 206 -52 8 -8 13
-100 17 -276 l5 -264 -176 6 c-98 4 -234 12 -304 18 l-128 12 0 153 c0 113 3
154 13 157 8 3 6 10 -8 21 l-20 15 20 1 c15 0 17 2 6 9 -10 6 -6 11 15 19 l29
10 -27 1 -28 1 0 120 0 120 28 0 c15 0 56 -7 92 -16z m1393 -133 c-65 -22
-120 -60 -173 -117 l-40 -44 -83 0 c-111 0 -138 -15 -205 -116 -29 -43 -61
-82 -73 -86 -55 -21 -150 -144 -174 -225 -13 -46 22 -23 63 40 22 34 51 71 63
82 l23 20 -19 -30 c-52 -82 -58 -105 -44 -164 l14 -56 6 56 c9 86 25 102 21
20 -3 -54 0 -78 17 -116 24 -55 26 -68 6 -41 -8 11 -15 15 -15 9 0 -13 25 -35
32 -28 3 3 13 -5 24 -17 12 -13 14 -18 4 -13 -9 5 -12 5 -7 -1 5 -5 12 -9 15
-9 4 -1 37 -15 73 -33 37 -18 72 -32 77 -32 6 0 13 -4 16 -9 10 -15 -132 26
-173 51 -22 12 -54 41 -71 63 -31 39 -31 39 -24 10 10 -44 22 -66 63 -110 l36
-40 -37 34 c-21 19 -38 30 -38 25 0 -6 9 -19 20 -29 11 -10 20 -23 20 -29 -1
-15 -50 42 -50 58 0 7 -6 26 -14 42 -8 16 -20 71 -27 122 -7 50 -16 92 -21 92
-12 0 -10 -194 2 -225 6 -16 6 -24 0 -20 -19 12 -31 85 -24 147 5 40 3 59 -3
55 -6 -4 -13 -36 -17 -72 -7 -70 7 -119 56 -188 14 -21 16 -27 5 -19 -9 8 -30
41 -46 73 -16 32 -31 53 -33 47 -7 -21 11 -101 27 -118 8 -9 15 -20 15 -25 0
-21 -41 48 -51 88 -10 37 -10 59 4 127 8 45 24 91 33 101 9 11 15 22 12 25 -8
7 -80 -89 -107 -143 -25 -51 -27 -93 -5 -139 21 -44 27 -39 12 8 -8 28 -8 48
2 82 7 25 17 46 22 46 5 0 7 -9 3 -19 -7 -24 18 -123 40 -157 9 -14 24 -28 33
-31 9 -4 19 -9 22 -12 3 -3 14 -11 25 -17 11 -6 28 -26 37 -46 9 -19 25 -41
35 -48 17 -14 17 -14 2 5 -33 41 -30 49 6 14 28 -28 36 -41 30 -58 -8 -25 -27
-27 -49 -5 -9 8 -16 12 -16 8 0 -15 -58 48 -63 68 -5 16 -2 19 14 15 10 -3 19
-1 19 4 0 12 -37 34 -82 50 -21 7 -40 21 -44 31 -3 10 -9 18 -14 18 -16 0 22
-61 51 -82 16 -12 32 -31 35 -42 4 -12 15 -33 25 -48 12 -16 16 -33 12 -44 -5
-14 -3 -16 13 -10 34 13 37 12 38 -15 1 -15 9 -36 19 -46 20 -23 22 -40 5 -45
-7 -3 -5 -7 6 -11 10 -4 15 -3 11 3 -3 6 -2 10 3 10 4 0 23 -20 42 -45 19 -25
36 -45 38 -45 5 0 -19 37 -60 94 -15 21 -28 46 -28 55 0 20 115 174 165 221
26 24 16 8 -30 -50 -36 -47 -76 -96 -87 -109 -16 -18 -17 -25 -7 -32 8 -4 17
-2 24 8 9 12 17 8 47 -29 20 -23 55 -63 77 -88 23 -24 41 -51 42 -60 0 -8 7
21 15 65 23 129 43 184 85 237 21 27 39 47 39 43 0 -3 -12 -22 -26 -40 -46
-60 -88 -211 -96 -344 l-2 -44 84 -28 c47 -15 89 -24 94 -21 5 3 6 1 3 -4 -3
-6 -2 -16 3 -24 7 -11 42 20 147 126 135 138 231 215 380 303 l72 43 -19 39
c-24 45 -25 87 -6 166 8 32 20 94 27 138 15 91 11 101 45 -119 11 -78 20 -112
25 -100 6 15 8 14 8 -10 1 -25 3 -27 18 -15 11 10 14 10 9 2 -4 -8 -2 -13 4
-13 6 0 8 -5 4 -12 -5 -8 -2 -9 12 -4 211 86 343 116 508 117 104 1 117 -1
167 -27 30 -15 67 -30 83 -33 16 -4 32 -13 34 -21 4 -12 2 -13 -9 -2 -7 6 -21
12 -31 12 -10 0 -42 12 -71 27 -144 73 -464 16 -745 -132 -129 -69 -312 -192
-414 -279 -122 -105 -262 -295 -242 -328 5 -7 32 -9 80 -5 67 5 91 -2 64 -18
-19 -12 -89 -141 -110 -203 -11 -35 -23 -99 -26 -143 -2 -44 -14 -105 -25
-135 -11 -30 -19 -61 -17 -69 3 -17 134 254 204 422 42 101 73 158 81 149 2
-2 -7 -26 -20 -53 -13 -26 -30 -66 -37 -88 -24 -76 -82 -211 -152 -350 -103
-206 -139 -311 -152 -441 -6 -63 -24 -136 -47 -192 -13 -30 -12 -34 4 -43 9
-6 17 -15 17 -21 0 -6 -9 -3 -20 7 -11 10 -20 29 -20 43 0 20 -2 22 -15 12
-12 -10 -19 -6 -42 18 -15 16 -38 35 -50 41 -13 6 -23 17 -23 23 0 6 10 4 24
-5 22 -15 24 -15 19 1 -6 25 55 26 88 1 13 -10 18 -19 12 -19 -15 0 -18 -30
-4 -30 5 0 14 24 21 52 6 29 14 64 17 77 5 20 3 23 -11 18 -9 -4 -16 -2 -16 3
0 6 8 10 18 10 11 0 17 8 18 25 2 31 -6 31 -79 1 -36 -14 -54 -26 -45 -30 7
-3 -3 -4 -22 -1 l-35 4 28 -15 c27 -15 47 -14 94 2 12 5 15 4 8 -3 -5 -5 -41
-20 -78 -32 -61 -19 -70 -20 -83 -6 -9 8 -17 15 -20 15 -7 0 1 -25 11 -32 6
-4 -5 -10 -22 -14 -18 -4 -30 -10 -28 -15 3 -4 -14 3 -37 16 -24 12 -58 26
-76 30 -19 4 -30 11 -26 17 5 7 -2 9 -22 4 -35 -9 -38 -12 -29 -25 13 -22 87
-53 98 -42 10 10 2 14 -23 13 -3 0 -12 7 -20 16 -13 14 -12 15 5 8 11 -4 28
-9 37 -11 10 -2 25 -8 34 -13 15 -8 14 -11 -10 -24 l-28 -14 41 -12 c22 -7 47
-22 56 -35 21 -30 18 -47 -4 -18 -15 20 -18 21 -16 4 0 -10 5 -24 9 -31 4 -7
6 -16 3 -18 -3 -3 -11 9 -18 26 -8 18 -19 28 -27 25 -7 -3 -11 -1 -8 4 9 13
-28 20 -40 7 -16 -17 -24 -46 -13 -46 5 0 15 -14 21 -30 9 -28 98 -102 98 -83
0 9 20 -19 20 -28 0 -4 -7 -9 -14 -12 -10 -4 -13 -1 -10 7 7 18 -64 60 -96 57
-33 -3 -80 -21 -80 -31 0 -5 6 -11 13 -14 6 -3 2 -3 -10 0 -16 4 -33 -5 -64
-33 -61 -55 -92 -141 -51 -144 16 -1 16 -2 0 -6 -26 -6 -30 -40 -14 -105 18
-76 3 -75 -18 0 -20 73 -20 89 0 100 10 6 13 12 6 16 -5 3 -7 16 -4 29 5 18 0
16 -27 -13 -17 -19 -34 -46 -37 -60 -9 -42 -12 -46 -13 -19 -2 61 85 181 170
234 38 24 38 26 21 43 -10 10 -26 21 -35 25 -9 3 -17 11 -17 17 0 6 -4 8 -10
5 -5 -3 -19 6 -32 20 -23 26 -50 36 -28 10 9 -10 9 -15 1 -15 -6 0 -12 5 -12
10 -1 6 -2 15 -3 20 0 6 -4 10 -8 10 -5 0 -12 0 -18 0 -5 0 -7 -8 -4 -17 5
-15 4 -15 -4 -4 -9 12 -13 12 -26 2 -9 -8 -16 -20 -16 -28 0 -8 -5 -11 -12 -7
-7 4 -8 3 -4 -4 10 -17 -4 -15 -24 3 -21 19 -42 12 -55 -18 -8 -18 -5 -27 20
-50 24 -23 25 -26 5 -13 -13 9 -30 16 -36 16 -18 0 -25 -29 -12 -53 10 -19 9
-20 -4 -10 -8 7 -18 10 -21 6 -13 -13 -7 23 7 43 11 14 11 22 3 32 -8 10 -7
12 3 10 8 -2 17 11 23 30 10 31 29 39 82 33 6 0 23 10 39 22 l28 23 -75 23
-75 24 -63 -21 c-111 -35 -392 -141 -449 -170 -48 -24 -55 -30 -53 -55 1 -15
-2 -27 -8 -27 -15 0 -10 -32 8 -52 9 -10 23 -18 31 -18 31 0 2 -11 -89 -35
-52 -14 -104 -29 -116 -35 -15 -6 -23 -5 -26 3 -2 6 -6 1 -10 -12 -4 -16 -2
-21 8 -18 7 3 33 11 56 18 24 7 47 18 51 24 4 5 8 7 8 3 0 -4 21 -1 48 7 89
25 121 27 173 10 56 -19 62 -30 9 -15 -25 7 -31 7 -23 -1 7 -7 29 -12 51 -13
45 -1 47 -16 2 -16 -15 0 -30 -7 -34 -15 -3 -8 -2 -15 3 -15 4 0 13 -12 20
-27 9 -20 15 -23 23 -15 23 23 136 -2 130 -28 -1 -6 2 -9 7 -6 16 10 43 -6 36
-22 -4 -12 -3 -13 9 -3 12 10 20 9 39 -3 13 -9 27 -14 30 -11 4 3 5 2 3 -1 -2
-3 -8 -6 -13 -6 -17 0 -43 -19 -42 -31 0 -9 2 -9 6 1 2 6 13 12 24 12 11 0 32
7 47 16 26 16 25 15 -3 -9 -33 -29 -33 -29 47 -31 30 -1 34 1 25 13 -10 12 -9
12 10 3 12 -7 24 -8 27 -3 8 12 46 2 46 -11 0 -6 7 -7 16 -4 9 4 27 -1 40 -9
13 -9 24 -11 24 -6 0 6 -8 15 -17 20 -24 14 -7 14 18 1 10 -6 19 -17 19 -26 0
-8 7 -25 15 -38 15 -23 15 -23 -76 -65 -50 -23 -94 -40 -96 -37 -2 2 5 7 16
11 12 3 21 11 21 16 0 6 -10 5 -22 -2 -21 -11 -22 -11 -9 5 9 10 21 14 34 10
26 -8 18 17 -10 31 -21 11 -21 11 6 29 33 23 38 50 7 40 -19 -6 -20 -5 -7 12
7 10 3 8 -10 -6 -13 -14 -58 -38 -99 -54 -41 -16 -108 -46 -149 -68 -48 -26
-77 -36 -83 -30 -7 7 -22 5 -44 -4 -43 -18 -56 -17 -24 1 24 14 24 14 -14 8
-35 -6 -39 -4 -32 12 7 18 6 18 -14 0 -11 -10 -23 -15 -27 -11 -4 4 3 16 17
27 20 16 21 18 4 10 -12 -6 -25 -7 -29 -3 -5 4 -5 1 -1 -5 4 -7 2 -13 -3 -13
-6 0 -11 5 -11 10 0 6 -15 4 -37 -5 -20 -8 -38 -13 -41 -10 -3 3 0 5 7 5 7 0
9 4 6 10 -3 5 10 20 30 31 43 26 40 37 -4 14 -18 -9 -37 -13 -43 -9 -7 4 -8 3
-4 -4 7 -11 3 -14 -26 -16 -7 -1 -19 -8 -26 -16 -7 -8 -12 -10 -11 -5 3 26 -3
28 -16 5 -15 -25 -15 -25 -12 -2 2 13 10 28 18 33 8 5 10 9 4 9 -15 0 -36 -16
-34 -26 1 -5 1 -15 0 -23 -1 -12 -3 -12 -13 2 -12 15 -17 15 -72 -3 -68 -23
-69 -23 -61 -11 3 5 0 13 -7 17 -8 5 -6 10 8 15 12 5 5 7 -23 6 -36 -1 -39 -3
-25 -15 10 -7 -3 -3 -28 9 -51 24 -62 32 -40 28 16 -2 30 2 105 36 69 31 99
40 91 26 -5 -7 -1 -8 9 -4 11 4 13 8 6 13 -6 3 17 16 51 28 75 27 78 27 78 5
0 -14 3 -14 12 -5 10 10 10 15 -1 22 -11 6 -3 11 28 20 24 6 41 13 38 16 -2 3
-26 -3 -52 -11 -26 -9 -53 -14 -60 -11 -7 2 -16 -2 -19 -11 -5 -11 -14 -14
-34 -10 -15 3 -34 1 -42 -4 -11 -8 -8 -9 10 -4 l25 6 -25 -15 c-29 -17 -54
-21 -45 -6 3 6 -1 7 -10 4 -11 -5 -14 -2 -9 11 6 15 4 16 -14 6 -12 -6 -23 -7
-26 -2 -3 5 6 12 21 16 15 3 29 2 33 -4 4 -8 13 -6 26 4 18 13 18 14 -6 9 -24
-5 -24 -5 -6 10 21 17 15 21 -12 7 -9 -4 -30 -11 -45 -15 -22 -5 -27 -4 -21 6
5 8 1 7 -11 -2 -10 -8 -30 -15 -44 -16 -14 0 -44 -4 -66 -7 -22 -4 -33 -4 -25
-1 8 4 33 14 55 24 22 10 57 23 78 31 20 7 37 16 37 21 0 7 -44 -7 -112 -36
-20 -9 -44 -13 -52 -10 -8 3 -31 0 -51 -6 -20 -7 -39 -9 -42 -6 -3 3 16 11 43
17 38 10 44 14 28 20 -11 5 2 6 31 4 32 -3 41 -2 26 3 -22 7 -18 10 35 26 77
23 103 43 113 89 14 58 1 66 -119 74 -58 5 -127 5 -155 2 -27 -3 -52 -5 -53
-3 -4 3 28 50 83 121 38 50 44 53 150 87 61 19 139 40 174 46 35 6 89 21 119
32 31 11 104 36 163 54 l108 33 70 -31 70 -32 101 28 c96 27 102 28 143 13 23
-9 63 -19 90 -23 26 -3 50 -11 54 -17 3 -6 1 -7 -5 -3 -7 4 -12 3 -12 -1 0 -5
9 -14 21 -21 17 -11 23 -10 39 10 23 27 25 44 8 51 -9 4 -8 6 2 6 8 0 34 -8
58 -19 29 -13 42 -15 43 -7 0 9 2 9 6 0 3 -10 8 -9 20 3 14 14 14 17 -4 33
-36 34 -87 55 -63 26 7 -9 10 -19 6 -23 -4 -4 -14 1 -21 11 -10 15 -14 15 -17
4 -2 -11 -23 -8 -103 19 -55 19 -108 32 -119 30 -15 -4 -17 0 -13 21 3 14 1
38 -3 53 -8 28 -8 28 103 68 62 22 165 56 230 76 65 20 115 41 112 46 -3 6 0
7 8 4 39 -15 26 73 -103 701 -27 132 -62 313 -77 402 l-28 163 -185 2 -185 2
185 7 c164 5 156 6 -65 3 -338 -4 -785 -39 -910 -70 -56 -14 -97 -40 -115 -75
-5 -9 8 -122 35 -290 24 -151 71 -465 105 -699 34 -234 66 -445 71 -470 12
-52 34 -80 63 -80 12 0 120 33 241 73 283 95 271 92 279 64 3 -12 5 -38 5 -57
-1 -23 -3 -27 -6 -13 -2 13 -8 23 -13 23 -4 0 -6 9 -3 20 3 13 0 20 -8 20 -8
0 -123 -37 -257 -82 -262 -89 -275 -90 -314 -38 -22 31 -47 156 -88 445 -44
317 -50 345 -67 345 -47 0 -115 -66 -134 -130 -10 -34 -9 -53 9 -128 18 -72
22 -118 22 -257 0 -193 8 -238 48 -260 25 -13 26 -14 5 -15 -17 0 -29 11 -45
42 -20 39 -23 63 -29 253 -3 116 -11 226 -18 245 -17 53 -13 109 10 157 24 50
84 103 116 103 18 0 23 6 23 24 0 31 -42 322 -76 522 -21 123 -24 160 -15 182
13 32 80 76 136 90 134 35 936 100 1089 89 l70 -5 -36 19 c-40 20 -77 65 -97
116 l-13 32 -45 -20 c-53 -23 -70 -25 -54 -6 6 8 29 20 51 27 21 7 37 17 34
21 -3 5 0 9 5 9 6 0 11 9 11 19 0 10 15 42 34 70 l35 51 -35 -26 c-19 -15 -38
-33 -42 -40 -4 -8 -21 -16 -38 -20 -27 -5 -32 -3 -37 17 -7 24 -1 39 14 39 5
0 9 -12 9 -27 1 -24 2 -26 11 -10 5 9 7 21 4 27 -3 5 7 12 22 16 38 9 104 48
133 79 27 28 27 28 -18 16 -17 -5 -32 -6 -32 -1 0 4 15 11 34 14 41 8 47 14
76 95 28 76 83 148 145 191 25 17 52 45 61 62 9 16 34 50 56 74 22 24 36 44
30 44 -6 0 -13 -4 -17 -10 -3 -5 -11 -7 -18 -4 -7 2 -34 -10 -60 -27 -46 -30
-77 -72 -77 -104 0 -8 -4 -15 -9 -15 -19 0 12 65 47 103 42 43 193 107 261
110 37 1 42 4 37 21 -3 10 0 28 6 39 14 28 60 66 78 67 9 0 5 -8 -13 -23 -20
-16 -28 -32 -30 -62 -3 -55 24 -59 66 -10 60 71 140 113 212 114 l40 0 -52
-18z m-179 -12 c-6 -11 -24 -2 -24 11 0 5 7 7 15 4 8 -4 12 -10 9 -15z m315
-20 l32 -11 -71 -24 c-40 -14 -90 -34 -113 -46 -34 -17 -39 -18 -28 -4 19 22
64 46 121 63 l45 13 -55 -6 c-30 -3 -57 -10 -61 -16 -3 -5 -9 -9 -13 -9 -14 3
-66 -30 -80 -51 -13 -19 -16 -19 -16 -5 0 37 112 107 171 107 20 0 50 -5 68
-11z m1614 -6 c-7 -2 -21 -2 -30 0 -10 3 -4 5 12 5 17 0 24 -2 18 -5z m-1493
-39 c5 -5 -18 -9 -58 -9 -49 0 -85 -8 -135 -28 -37 -15 -73 -27 -80 -27 -15 1
76 50 123 67 39 13 135 12 150 -3z m27 -39 c15 -8 53 -17 84 -20 30 -3 70 -15
88 -26 32 -19 33 -22 29 -69 -5 -49 -25 -80 -52 -80 -20 0 -136 68 -136 80 0
6 -5 9 -11 8 -6 -2 -14 3 -16 10 -3 6 1 12 9 12 18 0 139 -58 160 -77 15 -13
18 -13 27 6 6 11 11 33 11 50 0 40 -30 55 -153 80 -95 19 -128 18 -217 -9 -19
-5 -41 -10 -50 -10 -28 0 13 28 65 44 65 19 126 20 162 1z m1543 -5 c0 -5 -4
-10 -10 -10 -5 0 -10 5 -10 10 0 6 5 10 10 10 6 0 10 -4 10 -10z m-1120 -37
c0 -15 -2 -16 -10 -3 -9 13 -11 13 -20 0 -8 -13 -10 -12 -10 3 0 10 8 17 20
17 12 0 20 -7 20 -17z m1050 -43 c0 -5 -6 -10 -14 -10 -8 0 -18 5 -21 10 -3 6
3 10 14 10 12 0 21 -4 21 -10z m-2282 -23 c-15 -12 -36 -33 -48 -47 l-21 -25
16 32 c8 18 28 39 43 47 38 21 41 19 10 -7z m-1338 -32 c0 -14 -2 -25 -4 -25
-2 0 -6 11 -8 25 -3 14 -1 25 3 25 5 0 9 -11 9 -25z m59 -24 c-15 -5 -22 6
-14 19 6 9 10 9 16 -1 5 -8 4 -15 -2 -18z m80 0 c0 -10 -2 -11 -6 -3 -2 6 -9
10 -14 6 -5 -3 -9 2 -9 10 0 10 6 13 15 10 8 -4 15 -14 14 -23z m76 8 c10 -15
-1 -23 -20 -15 -9 3 -13 10 -10 16 8 13 22 13 30 -1z m1285 7 c0 -2 -7 -7 -16
-10 -8 -3 -12 -2 -9 4 6 10 25 14 25 6z m-1220 -16 c0 -5 -4 -10 -10 -10 -5 0
-10 5 -10 10 0 6 5 10 10 10 6 0 10 -4 10 -10z m777 -22 c-3 -7 -5 -2 -5 12 0
14 2 19 5 13 2 -7 2 -19 0 -25z m100 0 c-3 -7 -5 -2 -5 12 0 14 2 19 5 13 2
-7 2 -19 0 -25z m2503 22 c8 -5 12 -12 9 -15 -8 -8 -39 5 -39 16 0 11 11 11
30 -1z m-3843 -42 c-3 -8 -6 -5 -6 6 -1 11 2 17 5 13 3 -3 4 -12 1 -19z m1453
7 c0 -8 -4 -15 -10 -15 -5 0 -7 7 -4 15 4 8 8 15 10 15 2 0 4 -7 4 -15z m2287
-1 c-3 -3 -12 -4 -19 -1 -8 3 -5 6 6 6 11 1 17 -2 13 -5z m-2376 -21 c13 -16
12 -17 -3 -4 -10 7 -18 15 -18 17 0 8 8 3 21 -13z m-1185 -30 c-11 -11 -19 6
-11 24 8 17 8 17 12 0 3 -10 2 -21 -1 -24z m57 15 c4 -10 8 -9 16 2 9 13 11
13 11 -2 0 -22 -35 -24 -44 -3 -7 18 10 20 17 3z m87 -4 c0 -9 -5 -14 -12 -12
-18 6 -21 28 -4 28 9 0 16 -7 16 -16z m64 1 c3 -8 1 -15 -4 -15 -6 0 -10 7
-10 15 0 8 2 15 4 15 2 0 6 -7 10 -15z m2124 -2 c-15 -2 -42 -2 -60 0 -18 2
-6 4 27 4 33 0 48 -2 33 -4z m87 -34 c20 -18 41 -41 46 -53 6 -11 -6 -2 -28
21 -21 23 -47 46 -58 52 -11 6 -15 11 -8 11 7 0 28 -14 48 -31z m-23 -40 c88
-57 69 -58 -39 -3 -59 31 -110 58 -112 60 -16 16 113 -34 151 -57z m1378 51
c0 -5 -7 -10 -15 -10 -8 0 -15 5 -15 10 0 6 7 10 15 10 8 0 15 -4 15 -10z
m-2417 -15 c-3 -9 -8 -14 -10 -11 -3 3 -2 9 2 15 9 16 15 13 8 -4z m1265 4
c-2 -6 -8 -10 -13 -10 -5 0 -11 4 -13 10 -2 6 4 11 13 11 9 0 15 -5 13 -11z
m857 1 c3 -5 -3 -10 -14 -10 -12 0 -21 5 -21 10 0 6 6 10 14 10 8 0 18 -4 21
-10z m158 -17 c-13 -2 -33 -2 -45 0 -13 2 -3 4 22 4 25 0 35 -2 23 -4z m-3637
-18 c-3 -8 -1 -15 5 -15 6 0 7 -5 3 -11 -10 -16 -28 6 -21 25 4 9 9 16 13 16
3 0 4 -7 0 -15z m67 -15 c3 -11 1 -20 -4 -20 -5 0 -9 9 -9 20 0 11 2 20 4 20
2 0 6 -9 9 -20z m77 0 c0 -11 -7 -20 -15 -20 -8 0 -15 9 -15 20 0 11 7 20 15
20 8 0 15 -9 15 -20z m1249 -12 c-5 -18 -9 -72 -9 -120 0 -91 18 -157 61 -222
l21 -31 -26 30 c-15 17 -38 54 -52 84 -22 46 -26 68 -25 137 0 49 6 97 15 118
19 45 28 47 15 4z m-1193 13 c-4 -5 0 -12 6 -14 8 -3 6 -6 -4 -6 -10 -1 -18 6
-18 14 0 8 5 15 11 15 5 0 8 -4 5 -9z m69 -19 c-8 -8 -25 10 -19 20 4 6 9 5
15 -3 4 -7 6 -15 4 -17z m2178 -78 c24 -34 47 -104 34 -104 -2 0 -20 26 -40
59 -20 32 -43 64 -52 71 -8 7 -12 17 -8 23 3 5 2 7 -4 4 -5 -3 -20 8 -34 26
l-23 32 49 -36 c28 -19 63 -53 78 -75z m-89 -34 c11 -19 32 -45 48 -58 15 -13
28 -29 28 -35 0 -6 -12 0 -27 14 l-26 24 27 -37 c15 -20 34 -39 42 -42 7 -3
14 -11 14 -17 0 -8 -4 -8 -15 1 -13 11 -14 10 -8 -6 3 -10 11 -22 15 -25 5 -3
6 -18 2 -33 l-6 -27 -29 39 c-15 21 -33 52 -39 68 -14 35 -5 27 26 -23 13 -21
24 -31 24 -22 0 9 -3 19 -7 23 -4 3 -8 13 -9 21 -1 8 -20 36 -42 62 -44 53
-103 151 -84 139 7 -4 12 -2 12 5 0 14 26 -21 54 -71z m1339 73 c-7 -2 -21 -2
-30 0 -10 3 -4 5 12 5 17 0 24 -2 18 -5z m134 0 c-20 -2 -52 -2 -70 0 -17 2 0
4 38 4 39 0 53 -2 32 -4z m-3504 -52 c3 -11 -1 -22 -9 -25 -9 -3 -11 0 -7 11
5 12 2 15 -10 10 -9 -3 -17 -2 -17 3 0 5 8 11 18 13 9 3 18 5 18 6 1 0 4 -8 7
-18z m2694 -3 c-3 -8 -6 -5 -6 6 -1 11 2 17 5 13 3 -3 4 -12 1 -19z m-3247 8
c0 -3 -4 -8 -10 -11 -5 -3 -10 -1 -10 4 0 6 5 11 10 11 6 0 10 -2 10 -4z m60
-6 c0 -5 -2 -10 -4 -10 -3 0 -8 5 -11 10 -3 6 -1 10 4 10 6 0 11 -4 11 -10z
m63 3 c-7 -2 -19 -2 -25 0 -7 3 -2 5 12 5 14 0 19 -2 13 -5z m142 -3 c3 -6 -1
-7 -10 -4 -11 5 -14 2 -8 -12 4 -12 3 -15 -5 -10 -17 10 -15 36 2 36 8 0 18
-4 21 -10z m102 -20 c1 -22 1 -22 -4 -2 -2 12 -8 22 -13 22 -5 0 -6 -7 -3 -17
4 -11 3 -14 -5 -9 -19 11 -14 38 6 34 10 -2 18 -13 19 -28z m63 20 c0 -5 -2
-10 -4 -10 -3 0 -8 5 -11 10 -3 6 -1 10 4 10 6 0 11 -4 11 -10z m58 3 c-10 -2
-18 -9 -18 -15 0 -6 -3 -9 -6 -5 -10 10 6 27 24 26 15 -1 15 -2 0 -6z m492
-13 c28 -8 22 -9 -35 -5 -38 3 -114 5 -168 5 -71 0 -96 3 -91 11 8 14 236 5
294 -11z m-916 -21 c-8 -14 -34 -10 -34 5 0 9 7 12 20 9 11 -3 17 -9 14 -14z
m41 11 c3 -5 1 -10 -4 -10 -6 0 -11 5 -11 10 0 6 2 10 4 10 3 0 8 -4 11 -10z
m185 -6 c0 -8 -5 -12 -10 -9 -6 4 -8 11 -5 16 9 14 15 11 15 -7z m17 -6 c-3
-8 -6 -5 -6 6 -1 11 2 17 5 13 3 -3 4 -12 1 -19z m-297 3 c0 -10 -26 -9 -36 2
-4 4 2 7 14 7 12 0 22 -4 22 -9z m135 -1 c-3 -5 -10 -10 -16 -10 -5 0 -9 5 -9
10 0 6 7 10 16 10 8 0 12 -4 9 -10z m45 0 c0 -5 -2 -10 -4 -10 -3 0 -8 5 -11
10 -3 6 -1 10 4 10 6 0 11 -4 11 -10z m220 0 c0 -5 -2 -10 -4 -10 -3 0 -8 5
-11 10 -3 6 -1 10 4 10 6 0 11 -4 11 -10z m478 -29 l122 -1 0 -164 0 -164 -62
-7 c-35 -3 -110 -5 -168 -3 l-105 3 0 165 0 164 25 7 c14 4 34 5 45 4 11 -2
75 -4 143 -4z m3120 2 c-54 -2 -142 -2 -195 0 -54 1 -10 3 97 3 107 0 151 -2
98 -3z m-3598 -40 c-1 -31 -3 -35 -11 -20 -6 9 -7 26 -4 37 10 30 15 24 15
-17z m-412 -8 c0 -13 -4 -22 -9 -19 -5 3 -9 14 -9 25 0 10 4 19 9 19 5 0 9
-11 9 -25z m125 14 c-6 -6 -9 -18 -6 -27 4 -10 2 -13 -5 -8 -18 11 -14 46 5
46 13 0 14 -3 6 -11z m87 -14 c0 -14 -4 -25 -10 -25 -8 0 -8 23 -1 48 4 12 11
-3 11 -23z m80 -2 c0 -14 -6 -23 -15 -23 -9 0 -15 9 -15 23 0 14 6 24 15 24 9
0 15 -10 15 -24z m79 0 c-1 -17 -3 -21 -6 -10 -2 9 -11 17 -19 17 -8 0 -12 5
-9 10 13 21 35 10 34 -17z m-222 -15 c-3 -7 -5 -2 -5 12 0 14 2 19 5 13 2 -7
2 -19 0 -25z m323 17 c0 -8 -2 -15 -4 -15 -2 0 -6 7 -10 15 -3 8 -1 15 4 15 6
0 10 -7 10 -15z m57 -7 c-3 -8 -6 -5 -6 6 -1 11 2 17 5 13 3 -3 4 -12 1 -19z
m63 12 c0 -5 -2 -10 -4 -10 -3 0 -8 5 -11 10 -3 6 -1 10 4 10 6 0 11 -4 11
-10z m40 0 c0 -5 -7 -7 -15 -4 -8 4 -15 8 -15 10 0 2 7 4 15 4 8 0 15 -4 15
-10z m2390 -2 c0 -11 -28 -10 -35 1 -3 6 4 9 15 8 11 -1 20 -5 20 -9z m-1820
-13 c0 -1 -9 -5 -20 -8 -12 -3 -20 0 -20 8 0 8 8 11 20 8 11 -3 20 -7 20 -8z
m1497 -27 c-3 -7 -5 -2 -5 12 0 14 2 19 5 13 2 -7 2 -19 0 -25z m1386 25 c-13
-2 -35 -2 -50 0 -16 2 -5 4 22 4 28 0 40 -2 28 -4z m-2342 -40 c13 -16 12 -17
-3 -4 -10 7 -18 15 -18 17 0 8 8 3 21 -13z m901 -73 c13 -10 20 -21 17 -24 -3
-3 -20 8 -37 24 -22 20 -32 38 -32 57 l1 28 14 -33 c8 -19 25 -42 37 -52z
m329 57 c-1 -12 -15 -9 -19 4 -3 6 1 10 8 8 6 -3 11 -8 11 -12z m-2923 -35
c-4 -22 -24 -26 -32 -6 -5 14 -4 15 9 4 18 -15 20 1 3 19 -11 10 -9 11 5 5 10
-3 17 -13 15 -22z m122 -4 c0 -4 -16 -10 -36 -14 -26 -5 -39 -3 -45 7 -15 23
-11 28 29 31 34 3 51 -5 52 -24z m120 18 c-1 -5 4 -13 12 -17 12 -8 9 -9 -39
-9 -9 0 -12 20 -5 33 5 11 33 5 32 -7z m87 -20 c-8 -20 -47 -21 -47 -1 0 18
32 37 44 25 5 -5 6 -16 3 -24z m90 2 c-3 -7 -5 -2 -5 12 0 14 2 19 5 13 2 -7
2 -19 0 -25z m-247 2 c0 -13 -5 -18 -15 -14 -8 4 -15 12 -15 20 0 8 7 14 15
14 8 0 15 -9 15 -20z m3658 13 c-126 -2 -330 -2 -455 0 -126 1 -23 2 227 2
250 0 353 -1 228 -2z m-1243 -63 c10 -11 13 -20 7 -20 -6 0 -16 9 -22 20 -6
11 -9 20 -7 20 2 0 12 -9 22 -20z m-1995 -5 c0 -9 -9 -15 -25 -15 -14 0 -25 5
-25 11 0 5 5 7 10 4 6 -3 10 -1 10 4 0 6 7 11 15 11 8 0 15 -7 15 -15z m1190
-29 c0 -2 -8 -10 -17 -17 -16 -13 -17 -12 -4 4 13 16 21 21 21 13z m2155 -6
c4 -7 -58 -11 -177 -12 -101 -1 -201 -3 -223 -4 -22 -1 -85 1 -140 5 -75 4
-22 7 205 11 168 3 310 6 317 8 6 1 15 -2 18 -8z m88 -7 c-13 -2 -33 -2 -45 0
-13 2 -3 4 22 4 25 0 35 -2 23 -4z m-2633 -53 c12 -16 19 -30 16 -30 -2 0 -14
14 -26 30 -12 17 -19 30 -16 30 2 0 14 -13 26 -30z m1194 22 c3 -5 -1 -9 -9
-9 -8 0 -12 4 -9 9 3 4 7 8 9 8 2 0 6 -4 9 -8z m-2004 -26 c0 -3 -4 -8 -10
-11 -5 -3 -10 -1 -10 4 0 6 5 11 10 11 6 0 10 -2 10 -4z m2705 -16 c3 -5 2
-10 -4 -10 -5 0 -13 5 -16 10 -3 6 -2 10 4 10 5 0 13 -4 16 -10z m-2895 -10
c0 -5 -2 -10 -4 -10 -3 0 -8 5 -11 10 -3 6 -1 10 4 10 6 0 11 -4 11 -10z
m1145 -8 c-3 -3 -11 0 -18 7 -9 10 -8 11 6 5 10 -3 15 -9 12 -12z m165 14 c0
-2 -8 -10 -17 -17 -16 -13 -17 -12 -4 4 13 16 21 21 21 13z m-1340 -16 c0 -5
-7 -10 -15 -10 -8 0 -15 5 -15 10 0 6 7 10 15 10 8 0 15 -4 15 -10z m755 -32
c-2 -33 -22 -33 -21 0 1 17 6 28 12 25 6 -2 10 -14 9 -25z m485 0 c0 -6 -6 -5
-15 2 -8 7 -15 14 -15 16 0 2 7 1 15 -2 8 -4 15 -11 15 -16z m-1325 -8 c-3 -5
-14 -10 -23 -10 -15 0 -15 2 -2 10 20 13 33 13 25 0z m-455 -3 c0 -2 -12 -14
-27 -28 l-28 -24 24 28 c23 25 31 32 31 24z m4240 -27 c0 -5 -8 -10 -17 -10
-15 0 -16 2 -3 10 19 12 20 12 20 0z m-127 -7 c-7 -2 -21 -2 -30 0 -10 3 -4 5
12 5 17 0 24 -2 18 -5z m-2090 -33 c3 -11 1 -18 -4 -14 -5 3 -9 12 -9 20 0 20
7 17 13 -6z m-2080 -5 c-3 -9 -8 -14 -10 -11 -3 3 -2 9 2 15 9 16 15 13 8 -4z
m3593 -50 c10 -16 15 -41 13 -75 l-3 -52 53 -30 c30 -18 57 -41 62 -56 5 -14
8 -64 7 -111 l-3 -86 47 -38 c26 -20 55 -52 65 -70 20 -39 29 -192 15 -255
-10 -43 -10 -44 41 -101 29 -32 63 -84 76 -117 43 -105 72 -168 92 -204 32
-56 55 -111 68 -164 6 -26 25 -74 40 -105 38 -74 55 -160 47 -236 -6 -57 -4
-63 19 -85 14 -13 25 -32 25 -42 0 -10 13 -30 30 -44 60 -54 60 -108 -2 -185
-22 -27 -33 -53 -34 -77 -5 -103 -75 -242 -199 -395 -43 -53 -79 -97 -81 -97
-2 0 31 48 74 107 130 178 192 313 192 417 0 20 7 41 16 48 54 44 64 58 64 94
0 38 -23 74 -47 74 -9 0 -13 -16 -13 -55 0 -30 -3 -55 -8 -55 -4 0 -6 21 -3
46 2 25 -1 50 -7 56 -6 6 -6 20 2 39 10 27 8 32 -14 49 -23 17 -25 27 -31 127
-8 133 -13 155 -48 218 -16 28 -36 79 -45 113 -8 34 -27 80 -41 102 -14 23
-30 53 -36 67 -7 20 -13 23 -21 15 -7 -7 -17 -12 -22 -12 -6 0 -3 7 7 15 17
12 18 18 7 52 -27 83 -91 200 -129 237 -40 39 -41 39 -57 20 -15 -19 -15 -19
-6 1 24 50 42 165 36 227 -8 80 -22 105 -81 158 l-48 42 -5 -61 c-3 -41 -11
-66 -24 -78 -18 -18 -18 -17 -2 8 12 20 16 59 18 184 l3 159 -50 32 c-63 41
-107 78 -82 70 10 -3 15 -2 12 3 -3 5 -1 12 5 16 19 12 2 104 -19 105 -3 0
-17 10 -31 21 l-25 20 32 -16 c18 -8 40 -26 49 -40z m14 34 c0 -11 -4 -18 -10
-14 -5 3 -7 12 -3 20 7 21 13 19 13 -6z m515 -10 c-99 -3 -247 -6 -330 -6
l-150 1 120 6 c66 3 215 6 330 6 l210 0 -180 -7z m-2057 -24 c-3 -3 -9 2 -12
12 -6 14 -5 15 5 6 7 -7 10 -15 7 -18z m-995 -2 c-13 -2 -35 -2 -50 0 -16 2
-5 4 22 4 28 0 40 -2 28 -4z m754 -35 c6 -13 32 -47 58 -75 25 -29 45 -57 43
-63 -2 -8 -116 128 -126 152 -9 20 16 5 25 -14z m2386 -5 c-7 -2 -21 -2 -30 0
-10 3 -4 5 12 5 17 0 24 -2 18 -5z m-426 -35 c-3 -7 -5 -2 -5 12 0 14 2 19 5
13 2 -7 2 -19 0 -25z m163 -18 c0 -5 -9 -10 -20 -10 -11 0 -20 5 -20 10 0 6 9
10 20 10 11 0 20 -4 20 -10z m-3851 -26 c14 -12 -19 -1 -35 12 -18 14 -18 14
6 3 14 -6 27 -13 29 -15z m4038 8 c-9 -8 -23 -12 -31 -9 -26 10 -18 22 15 23
27 1 29 0 16 -14z m-127 -16 c0 -3 -4 -8 -10 -11 -5 -3 -10 -1 -10 4 0 6 5 11
10 11 6 0 10 -2 10 -4z m-2864 -22 l120 -7 28 -126 c38 -175 38 -175 109 -179
31 -2 57 -1 57 2 0 23 -23 55 -42 58 -15 2 -24 11 -26 27 -3 18 0 22 12 18 9
-4 16 -2 16 3 0 6 -7 10 -17 10 -15 0 -15 2 1 19 14 15 15 24 6 40 -6 12 -15
21 -19 21 -10 0 -24 50 -17 58 10 9 151 30 158 24 10 -10 36 -194 42 -304 5
-92 40 -320 70 -453 8 -33 17 -81 20 -106 l7 -47 -43 -16 c-24 -9 -133 -43
-243 -75 -110 -32 -317 -95 -460 -140 -144 -45 -273 -80 -290 -79 -27 3 -31 8
-41 48 -24 98 -25 128 -7 133 13 3 10 5 -7 6 -24 2 -24 2 -6 16 17 13 18 15 3
15 -23 0 -22 20 1 21 11 1 8 4 -8 9 l-25 7 25 11 25 11 -25 1 c-24 1 -24 1 -6
15 19 15 19 15 -5 16 -13 0 -18 3 -11 6 6 2 12 9 12 14 0 6 -4 7 -10 4 -6 -3
-10 -2 -10 4 0 5 8 12 18 14 13 4 11 5 -5 6 -31 1 -29 15 5 29 l27 12 -27 -5
c-39 -7 -35 10 5 23 l32 12 -37 -5 c-44 -4 -50 9 -10 24 l27 11 -32 -5 c-37
-5 -46 12 -10 19 56 12 59 15 22 14 -56 0 -63 2 -40 12 17 7 17 9 3 9 -29 1
-20 21 10 22 26 2 26 2 2 6 -31 6 -51 23 -27 23 9 0 17 4 17 10 0 5 -6 7 -14
4 -9 -3 -15 4 -18 20 -3 15 -1 26 6 26 8 0 8 2 0 8 -7 4 -15 24 -18 46 -4 21
-9 42 -12 47 -3 5 11 9 30 9 31 0 36 3 36 24 0 36 -10 56 -29 55 -12 0 -13 -2
-2 -6 10 -4 8 -9 -10 -20 -23 -13 -23 -14 -1 -8 12 4 22 4 22 0 0 -3 -10 -10
-22 -16 -21 -9 -21 -9 5 -4 15 3 27 1 27 -5 0 -5 -13 -10 -29 -10 -29 0 -30 2
-47 77 -13 58 -14 78 -5 81 9 3 8 7 -3 16 -9 7 -22 63 -36 166 -12 85 -23 160
-24 165 0 6 19 13 44 17 49 7 529 2 726 -8z m2682 9 c-10 -2 -28 -2 -40 0 -13
2 -5 4 17 4 22 1 32 -1 23 -4z m392 -23 c0 -5 -17 -10 -37 -9 -31 0 -34 2 -18
9 28 12 55 12 55 0z m-324 -46 c-3 -9 -6 -20 -6 -25 0 -5 -7 -9 -16 -9 -13 0
-13 2 2 17 12 12 13 18 4 21 -7 3 -16 -1 -20 -8 -5 -8 -9 -7 -13 4 -5 12 0 16
24 16 24 0 30 -4 25 -16z m394 -14 c0 -11 -4 -20 -9 -20 -14 0 -23 18 -16 30
10 17 25 11 25 -10z m-616 -29 c3 -5 -1 -14 -8 -20 -12 -10 -13 -8 -9 8 6 23
9 25 17 12z m134 2 c-10 -2 -28 -2 -40 0 -13 2 -5 4 17 4 22 1 32 -1 23 -4z
m290 -59 c35 -10 26 -20 -13 -16 -19 2 -35 8 -35 13 0 10 16 11 48 3z m120 -5
c-2 -6 -8 -10 -13 -10 -5 0 -11 4 -13 10 -2 6 4 11 13 11 9 0 15 -5 13 -11z
m82 -64 c0 -8 -9 -15 -20 -15 -17 0 -19 2 -8 15 17 19 28 19 28 0z m-80 -5 c0
-5 -4 -10 -10 -10 -5 0 -10 5 -10 10 0 6 5 10 10 10 6 0 10 -4 10 -10z m-160
-9 c0 -17 -18 -21 -24 -6 -3 9 0 15 9 15 8 0 15 -4 15 -9z m-1510 -21 c12 -8
10 -10 -10 -10 -55 -1 -130 -29 -165 -62 -20 -18 -61 -81 -91 -138 -56 -106
-58 -107 -22 -15 58 150 92 189 193 221 49 16 75 17 95 4z m134 -45 c20 -8 36
-18 36 -20 0 -5 -70 22 -79 30 -8 9 6 5 43 -10z m1546 -50 c0 -8 -4 -15 -10
-15 -5 0 -10 7 -10 15 0 8 5 15 10 15 6 0 10 -7 10 -15z m-480 -20 c0 -10 -48
-100 -65 -120 -9 -11 -2 5 15 36 16 31 30 63 30 72 0 9 5 17 10 17 6 0 10 -2
10 -5z m-1275 -25 c10 -11 16 -20 13 -20 -3 0 -13 9 -23 20 -10 11 -16 20 -13
20 3 0 13 -9 23 -20z m87 -7 c13 -16 37 -46 53 -68 l27 -40 -33 40 c-19 22
-47 52 -64 67 -16 16 -25 28 -19 28 6 0 22 -12 36 -27z m-148 -8 c-9 -14 -18
-25 -21 -25 -5 0 5 18 20 38 17 22 18 13 1 -13z m-807 -82 c-3 -10 -5 -4 -5
12 0 17 2 24 5 18 2 -7 2 -21 0 -30z m2763 7 c0 -5 -4 -10 -10 -10 -5 0 -10 5
-10 10 0 6 5 10 10 10 6 0 10 -4 10 -10z m-2734 -91 c28 -105 75 -352 70 -365
-12 -30 -22 -11 -19 34 2 34 0 43 -7 32 -8 -12 -10 -10 -9 10 1 57 -31 243
-58 335 -3 11 -2 17 1 14 4 -4 14 -31 22 -60z m582 -24 c-6 -14 -13 -23 -15
-21 -5 5 15 46 22 46 3 0 -1 -11 -7 -25z m1692 -46 c0 -12 -37 -12 -45 0 -3 5
3 11 12 13 21 5 33 0 33 -13z m80 6 c0 -8 -4 -15 -10 -15 -5 0 -7 7 -4 15 4 8
8 15 10 15 2 0 4 -7 4 -15z m-1556 -274 c15 -41 25 -76 23 -78 -4 -4 -57 136
-57 151 0 17 8 1 34 -73z m-234 -135 c11 -54 20 -113 20 -130 0 -36 -42 -122
-128 -260 -33 -54 -64 -112 -67 -128 -4 -16 -24 -46 -44 -66 -21 -20 -50 -53
-64 -73 l-26 -35 26 -38 c14 -22 20 -35 13 -31 -23 14 -70 99 -70 127 0 16 -5
28 -13 28 -18 0 -57 -29 -57 -43 0 -7 21 -43 46 -81 l46 -68 -51 -48 c-50 -47
-50 -48 -54 -116 l-3 -69 -2 77 c-2 73 0 79 23 94 14 9 34 29 45 44 l19 27
-32 49 c-28 44 -57 98 -57 109 0 2 18 14 40 26 22 13 37 25 33 28 -5 3 -13 21
-20 39 -10 28 -9 33 8 42 14 8 19 7 20 -2 0 -7 5 -2 10 11 7 17 6 27 -2 31
-23 15 11 22 41 8 30 -13 35 -28 10 -36 -8 -3 -10 0 -5 9 5 8 4 10 0 6 -12
-10 -15 -38 -4 -31 16 9 10 -28 -12 -82 -15 -34 -19 -61 -15 -79 l7 -27 21 29
c12 15 37 45 56 67 19 21 43 57 53 80 10 23 48 93 85 156 37 63 73 126 80 140
18 33 18 103 -2 232 -10 62 -13 114 -8 125 6 15 8 13 11 -12 2 -16 13 -75 23
-129z m1044 82 c19 -88 31 -175 23 -167 -4 3 -9 23 -12 45 -4 21 -13 66 -21
99 -22 93 -23 95 -14 95 4 0 15 -33 24 -72z m656 60 c1 -57 23 -155 37 -165
15 -12 15 -13 -4 -13 -18 0 -22 9 -31 63 -17 95 -19 127 -10 127 4 0 8 -6 8
-12z m-609 -89 c12 -84 18 -149 23 -234 5 -101 -10 -26 -28 145 -8 74 -18 144
-22 155 -5 15 -4 17 5 9 7 -6 16 -40 22 -75z m57 -27 c7 -48 14 -127 16 -177
l5 -90 -13 100 c-23 164 -35 241 -43 261 -6 16 -4 17 9 6 10 -8 19 -44 26
-100z m41 20 c7 -35 10 -66 8 -68 -2 -3 -10 24 -16 58 -7 35 -14 72 -17 83 -4
15 -3 17 4 5 5 -8 15 -44 21 -78z m298 36 c-3 -8 -6 -5 -6 6 -1 11 2 17 5 13
3 -3 4 -12 1 -19z m-1969 0 c-3 -12 -176 -63 -185 -54 -3 2 152 58 185 65 1 1
1 -5 0 -11z m1870 -57 c15 -47 15 -51 2 -51 -5 0 -10 7 -10 15 0 8 -4 15 -9
15 -11 0 -19 30 -14 48 8 22 20 13 31 -27z m-1858 20 c0 -9 -47 -21 -83 -21
-25 0 -17 9 13 15 12 2 25 7 28 10 9 8 42 6 42 -4z m1470 -31 c0 -11 -2 -20
-4 -20 -2 0 -6 9 -9 20 -3 11 -1 20 4 20 5 0 9 -9 9 -20z m-1693 4 c-3 -3 -12
-4 -19 -1 -8 3 -5 6 6 6 11 1 17 -2 13 -5z m219 -19 c-4 -35 -8 -37 -52 -27
l-39 9 38 8 c20 4 40 11 43 16 3 5 -3 6 -13 3 -15 -5 -16 -4 -3 5 23 16 29 13
26 -14z m1319 -24 c-8 -17 -19 -32 -25 -36 -5 -3 -6 -15 -1 -28 8 -23 23 -140
16 -122 -3 6 -11 39 -18 75 -13 63 -13 66 11 103 29 44 39 49 17 8z m612 -3
c-3 -8 -6 -5 -6 6 -1 11 2 17 5 13 3 -3 4 -12 1 -19z m-450 -10 c-3 -8 -6 -5
-6 6 -1 11 2 17 5 13 3 -3 4 -12 1 -19z m207 -143 c3 -30 2 -44 -3 -35 -5 8
-11 53 -14 100 -6 86 3 53 17 -65z m-197 93 c-3 -7 -5 -2 -5 12 0 14 2 19 5
13 2 -7 2 -19 0 -25z m393 22 c0 -5 -5 -10 -11 -10 -5 0 -7 5 -4 10 3 6 8 10
11 10 2 0 4 -4 4 -10z m-530 -14 c0 -3 -4 -8 -10 -11 -5 -3 -10 -1 -10 4 0 6
5 11 10 11 6 0 10 -2 10 -4z m75 -32 c2 -16 2 -23 -1 -17 -4 8 -16 11 -32 8
-25 -5 -25 -5 -4 4 12 6 22 18 22 27 0 26 10 10 15 -22z m72 -26 c-3 -8 -6 -5
-6 6 -1 11 2 17 5 13 3 -3 4 -12 1 -19z m-87 -8 c0 -5 -8 -10 -17 -10 -15 0
-16 2 -3 10 19 12 20 12 20 0z m29 -76 c8 -57 8 -72 -4 -84 -10 -10 -15 -11
-15 -2 0 7 5 12 10 12 6 0 8 10 5 23 -3 12 -7 37 -8 54 -1 24 -7 33 -19 33
-17 0 -17 1 0 18 9 10 18 18 19 17 2 -1 7 -32 12 -71z m-1049 36 c0 -11 -2
-20 -4 -20 -2 0 -6 9 -9 20 -3 11 -1 20 4 20 5 0 9 -9 9 -20z m1337 -12 c-3
-7 -5 -2 -5 12 0 14 2 19 5 13 2 -7 2 -19 0 -25z m-2207 -26 c0 -13 -12 -22
-22 -16 -10 6 -1 24 13 24 5 0 9 -4 9 -8z m1892 -14 c-7 -7 -12 -8 -12 -2 0
14 12 26 19 19 2 -3 -1 -11 -7 -17z m-95 -10 c-3 -8 -6 -5 -6 6 -1 11 2 17 5
13 3 -3 4 -12 1 -19z m-748 -94 c9 -11 1 -5 -16 15 -18 19 -33 39 -33 45 0 6
7 -1 17 -14 9 -14 23 -34 32 -46z m1591 -17 c0 -12 0 -11 -24 28 l-17 30 20
-24 c12 -13 21 -28 21 -34z m-2548 9 c9 -4 22 -9 30 -10 7 -2 24 -8 38 -13 14
-6 28 -9 31 -7 4 2 10 -3 13 -12 5 -12 2 -15 -11 -9 -10 4 -26 10 -35 12 -10
3 -18 8 -18 12 0 6 -26 10 -95 12 -22 1 -34 4 -27 6 6 3 10 8 8 12 -6 9 42 6
66 -3z m2428 -8 c23 -25 27 -47 5 -28 -8 6 -30 12 -50 13 -33 1 -34 2 -13 13
21 11 21 12 2 17 -14 3 -12 5 8 6 16 1 35 -8 48 -21z m-101 -47 c1 -35 -5 -22
-12 24 -5 28 -4 34 3 20 5 -11 9 -31 9 -44z m-1846 0 c29 -18 35 -26 26 -35
-8 -8 -13 -8 -16 2 -3 6 -9 10 -14 6 -5 -3 -8 -1 -7 5 2 6 -10 22 -27 36 -32
28 -25 25 38 -14z m1583 15 c3 -8 4 -23 1 -33 -3 -15 -6 -14 -15 7 -9 22 -11
22 -12 5 -1 -19 -1 -19 -11 -1 -9 14 -8 20 2 27 20 12 29 11 35 -5z m503 -26
c0 -10 -3 -8 -9 5 -12 27 -12 43 0 25 5 -8 9 -22 9 -30z m-2549 26 c0 -2 -9
-6 -20 -9 -11 -3 -18 -1 -14 4 5 9 34 13 34 5z m1990 -25 c0 -5 3 -16 6 -25 8
-22 -15 -20 -33 2 -13 16 -13 15 -11 -7 4 -30 -17 -40 -25 -12 -3 13 2 25 17
35 24 17 46 20 46 7z m458 -61 c0 -22 -1 -22 -8 5 -4 17 -8 39 -8 50 0 16 2
15 8 -5 4 -14 8 -36 8 -50z m-30 -5 c0 -16 -2 -15 -8 5 -4 14 -8 34 -8 45 0
16 2 15 8 -5 4 -14 8 -34 8 -45z m-1928 12 c0 -18 -33 -19 -46 -2 -21 29 -17
34 16 22 17 -6 30 -15 30 -20z m1777 27 c-3 -3 -12 -4 -19 -1 -8 3 -5 6 6 6
11 1 17 -2 13 -5z m72 -104 c0 -8 -7 8 -15 35 -7 28 -13 57 -13 65 0 8 7 -7
15 -35 7 -27 13 -57 13 -65z m218 78 c-3 -8 -6 -5 -6 6 -1 11 2 17 5 13 3 -3
4 -12 1 -19z m-500 -13 c0 -8 -4 -12 -9 -9 -4 3 -8 9 -8 15 0 5 4 9 8 9 5 0 9
-7 9 -15z m-37 -27 c0 -26 -13 -16 -17 13 -2 12 1 18 7 14 5 -3 10 -16 10 -27z
m-2000 -30 c0 -5 -5 -6 -12 -2 -8 5 -9 2 -4 -11 5 -15 4 -16 -9 -5 -12 10 -15
10 -15 -1 0 -9 -3 -10 -11 -2 -15 15 -2 34 18 26 11 -4 14 -3 9 5 -5 8 -2 10
8 6 9 -3 16 -10 16 -16z m1944 6 c3 -8 2 -12 -4 -9 -6 3 -10 10 -10 16 0 14 7
11 14 -7z m113 -6 c-3 -8 -6 -5 -6 6 -1 11 2 17 5 13 3 -3 4 -12 1 -19z m-37
-45 c0 -14 20 -18 20 -5 0 4 -7 18 -16 30 -19 28 -3 29 22 1 18 -20 12 -48
-13 -56 -9 -3 -43 54 -43 73 0 13 29 -30 30 -43z m-1990 -10 c0 4 9 3 20 -3
11 -6 20 -16 20 -22 0 -6 -9 -3 -19 6 -11 10 -22 13 -25 8 -3 -6 0 -13 6 -15
8 -4 9 -6 2 -6 -7 -1 -22 8 -35 19 -15 12 -18 19 -9 18 9 -2 14 3 12 12 -1 10
2 9 13 -4 8 -11 15 -17 15 -13z m1950 2 c0 -14 -5 -25 -11 -25 -6 0 -8 9 -4
21 5 15 4 19 -4 15 -6 -4 -11 -2 -11 3 0 6 7 11 15 11 9 0 15 -9 15 -25z
m-2330 -26 c25 -22 40 -38 33 -35 -6 4 -14 2 -18 -4 -3 -5 -11 -10 -18 -10 -6
0 -2 7 9 15 18 14 16 17 -16 19 -8 1 -15 8 -15 16 0 8 -7 15 -16 14 -9 -1 -16
5 -16 12 0 21 8 17 57 -27z m2630 -6 c0 -8 -38 17 -51 33 -9 11 -2 9 19 -6 17
-13 32 -25 32 -27z m-3527 -31 c-22 -27 -45 -63 -52 -81 -8 -17 -21 -31 -30
-31 -14 0 -14 2 -1 10 12 8 10 10 -9 10 -24 0 -24 0 -5 15 17 13 16 14 -13 5
-23 -6 -33 -5 -33 3 0 6 -7 2 -16 -9 -8 -10 -13 -13 -9 -6 4 7 0 12 -10 12 -9
0 -13 5 -10 10 4 6 11 7 17 4 6 -4 8 -2 5 3 -4 6 1 17 10 24 14 12 16 12 8 -1
-6 -12 -6 -13 6 -2 12 11 12 14 -1 22 -8 5 -10 10 -4 10 5 0 14 -4 20 -10 6
-6 15 -6 24 0 12 8 12 10 -5 11 -11 0 16 13 60 28 44 14 82 26 83 25 2 -2 -14
-25 -35 -52z m795 33 c-3 -3 -9 2 -12 12 -6 14 -5 15 5 6 7 -7 10 -15 7 -18z
m567 16 c3 -5 1 -12 -5 -16 -5 -3 -10 1 -10 9 0 18 6 21 15 7z m-500 -39 c-3
-3 -11 0 -18 7 -9 10 -8 11 6 5 10 -3 15 -9 12 -12z m-95 -2 c0 -5 -4 -10 -9
-10 -6 0 -13 5 -16 10 -3 6 1 10 9 10 9 0 16 -4 16 -10z m441 -7 c13 -16 12
-17 -3 -4 -17 13 -22 21 -14 21 2 0 10 -8 17 -17z m109 7 c0 -5 -4 -10 -10
-10 -5 0 -10 5 -10 10 0 6 5 10 10 10 6 0 10 -4 10 -10z m-505 -20 c3 -5 -1
-10 -9 -10 -8 0 -18 5 -21 10 -3 6 1 10 9 10 8 0 18 -4 21 -10z m-978 -6 c-3
-3 -12 -4 -19 -1 -8 3 -5 6 6 6 11 1 17 -2 13 -5z m1643 -1 c-75 -25 -100 -31
-100 -23 0 9 63 28 95 28 13 0 15 -1 5 -5z m-580 -38 c30 -19 51 -35 47 -35
-14 0 -116 55 -117 63 0 13 14 7 70 -28z m576 -31 c-4 -20 -10 -34 -12 -31 -3
3 -2 21 2 41 3 21 9 35 11 32 3 -3 2 -21 -1 -42z m84 36 c0 -5 -3 -10 -8 -10
-4 0 -18 -21 -31 -47 -14 -27 -33 -60 -44 -75 -10 -16 -16 -36 -13 -46 9 -27
91 -108 125 -123 17 -8 31 -17 31 -22 0 -11 -58 20 -101 54 -19 15 -44 44 -54
63 -23 42 -30 44 -46 14 -19 -36 -61 -89 -66 -84 -5 4 31 62 47 76 3 3 13 19
22 35 10 17 22 29 28 28 5 -2 29 31 52 72 40 69 58 90 58 65z m-725 -10 c3 -6
-1 -7 -9 -4 -18 7 -21 14 -7 14 6 0 13 -4 16 -10z m2495 -16 c0 -8 -4 -12 -10
-9 -5 3 -10 10 -10 16 0 5 5 9 10 9 6 0 10 -7 10 -16z m-1905 -14 c-3 -5 -11
-10 -16 -10 -6 0 -7 5 -4 10 3 6 11 10 16 10 6 0 7 -4 4 -10z m-1203 -32 c32
-7 57 -16 55 -22 -2 -5 -21 -15 -42 -23 -47 -16 -252 -20 -266 -6 -21 21 -5
48 31 54 61 11 162 9 222 -3z m1235 -30 c-3 -8 -6 -5 -6 6 -1 11 2 17 5 13 3
-3 4 -12 1 -19z m-1547 -23 c-7 -8 -20 -15 -29 -14 -10 0 -7 4 9 11 17 7 20
12 11 15 -11 5 -11 7 0 14 18 11 24 -7 9 -26z m-40 5 c-8 -5 -22 -9 -30 -9
-10 0 -8 3 5 9 27 12 43 12 25 0z m1357 -82 c-3 -7 -5 -2 -5 12 0 14 2 19 5
13 2 -7 2 -19 0 -25z m0 -55 c-3 -10 -5 -4 -5 12 0 17 2 24 5 18 2 -7 2 -21 0
-30z m-1110 -19 c-3 -3 -12 -4 -19 -1 -8 3 -5 6 6 6 11 1 17 -2 13 -5z m919
-9 c-11 -8 -27 -15 -35 -15 -9 1 -2 7 14 15 39 18 44 18 21 0z m286 -14 c2
-17 1 -28 -4 -25 -8 5 -12 54 -4 54 2 0 6 -13 8 -29z m-1243 -1 c-6 -5 -18 -6
-26 -3 -19 8 -16 11 13 11 17 0 22 -3 13 -8z m116 0 c-27 -12 -43 -12 -25 0 8
5 22 9 30 9 10 0 8 -3 -5 -9z m-45 -14 c0 -2 -7 -7 -16 -10 -8 -3 -12 -2 -9 4
6 10 25 14 25 6z m86 -54 c-48 -19 -90 -31 -94 -28 -3 4 0 11 8 16 8 6 10 10
5 10 -6 0 -21 -8 -34 -17 -14 -9 -21 -11 -17 -5 3 6 -1 15 -9 19 -11 7 -7 9
17 10 40 2 65 7 74 15 3 4 13 4 22 1 11 -5 13 -3 7 7 -5 9 -4 11 4 6 6 -4 18
0 26 8 12 12 21 13 47 4 l31 -11 -87 -35z m-159 42 c-3 -3 -12 -4 -19 -1 -8 3
-5 6 6 6 11 1 17 -2 13 -5z m-40 -10 c-3 -3 -12 -4 -19 -1 -8 3 -5 6 6 6 11 1
17 -2 13 -5z m136 -1 c3 -5 -6 -9 -20 -10 -19 -1 -22 1 -12 8 17 11 26 11 32
2z m877 -63 c0 -5 6 -7 14 -4 8 3 17 0 22 -7 4 -7 3 -10 -4 -5 -5 3 -12 3 -14
-1 -4 -11 -150 -83 -166 -83 -7 0 -39 -13 -72 -30 -60 -30 -86 -37 -76 -21 4
5 0 11 -6 14 -7 2 21 20 62 39 120 57 151 69 161 62 5 -3 8 0 7 8 -2 8 5 12
17 11 11 -1 24 5 28 13 9 16 27 19 27 4z m-663 -65 c0 -9 -6 -14 -14 -11 -7 3
-13 1 -13 -5 0 -6 -6 -9 -14 -6 -8 3 -17 2 -20 -4 -2 -5 -3 -4 -1 3 1 7 8 12
14 11 6 -2 11 1 11 6 0 5 8 12 18 14 9 3 17 5 18 6 0 0 1 -6 1 -14z m673 6 c0
-5 -7 -12 -16 -15 -14 -5 -15 -4 -4 9 14 17 20 19 20 6z m-480 -10 c0 -5 -10
-11 -22 -14 -22 -6 -22 -6 -4 8 23 17 26 18 26 6z m100 -26 c0 -2 -9 -3 -19
-2 -11 0 -18 5 -15 9 4 6 34 0 34 -7z m307 -2 c-14 -14 -19 -15 -29 -4 -7 8
-8 11 -3 8 6 -3 17 -2 25 4 23 14 26 11 7 -8z m-210 1 c-3 -3 -12 -4 -19 -1
-8 3 -5 6 6 6 11 1 17 -2 13 -5z m-402 -14 c-3 -5 -12 -10 -18 -10 -7 0 -6 4
3 10 19 12 23 12 15 0z m365 0 c0 -5 -5 -10 -11 -10 -5 0 -7 5 -4 10 3 6 8 10
11 10 2 0 4 -4 4 -10z m190 -4 c0 -3 -4 -8 -10 -11 -5 -3 -10 -1 -10 4 0 6 5
11 10 11 6 0 10 -2 10 -4z m-186 -41 c4 -11 -3 -19 -20 -25 -47 -18 -55 -12
-26 19 21 24 38 26 46 6z m-175 -19 c-2 -2 -15 -9 -29 -15 -24 -11 -24 -11 -6
3 16 13 49 24 35 12z m3431 -126 c-27 -38 -70 -70 -139 -105 -71 -35 -56 -14
18 25 32 17 76 49 97 71 46 47 53 50 24 9z"/>
<path d="M1300 4124 c0 -11 5 -26 10 -34 9 -13 11 -13 20 0 9 13 10 13 11 0 0
-9 4 -7 11 8 13 26 12 28 -25 37 -22 6 -27 4 -27 -11z"/>
<path d="M1406 4122 c-3 -5 3 -16 14 -24 17 -15 19 -15 23 2 3 11 -1 21 -10
24 -19 8 -21 8 -27 -2z"/>
<path d="M1222 4103 c2 -10 12 -18 23 -18 11 0 21 8 23 18 3 13 -3 17 -23 17
-20 0 -26 -4 -23 -17z"/>
<path d="M1366 4095 c-3 -9 0 -15 9 -15 9 0 12 6 9 15 -4 8 -7 15 -9 15 -2 0
-5 -7 -9 -15z"/>
<path d="M1494 4092 c4 -6 -5 -12 -21 -14 -25 -3 -23 -4 10 -9 30 -4 37 -2 35
10 -2 8 -9 16 -17 19 -8 3 -11 0 -7 -6z"/>
<path d="M1555 4069 c-10 -15 -3 -19 51 -25 45 -5 47 -4 30 10 -10 9 -23 13
-27 10 -5 -3 -17 0 -28 6 -14 7 -22 7 -26 -1z"/>
<path d="M1358 4053 c6 -2 18 -2 25 0 6 3 1 5 -13 5 -14 0 -19 -2 -12 -5z"/>
<path d="M1300 4041 c0 -6 4 -13 10 -16 6 -3 7 1 4 9 -7 18 -14 21 -14 7z"/>
<path d="M1208 4033 c6 -2 18 -2 25 0 6 3 1 5 -13 5 -14 0 -19 -2 -12 -5z"/>
<path d="M1371 4023 c-10 -4 -4 -11 18 -23 l33 -17 -35 -21 c-23 -13 -34 -16
-31 -8 6 16 -49 38 -71 30 -15 -6 -89 -116 -103 -154 -11 -31 11 -120 34 -137
11 -8 24 -9 41 -2 14 5 29 7 34 3 5 -3 8 5 6 18 -1 16 3 22 12 20 8 -2 25 2
38 9 17 9 25 9 37 0 18 -15 36 -7 36 16 0 10 -6 13 -16 9 -22 -8 -15 53 8 68
25 16 72 -4 76 -32 4 -27 -36 -132 -57 -149 -25 -22 -72 -16 -79 9 l-5 22 -9
-24 c-7 -20 -10 -21 -26 -8 -21 18 -77 9 -77 -11 0 -28 100 -44 195 -32 47 6
111 13 144 17 76 9 96 28 96 93 0 60 -16 108 -41 122 -26 13 -24 24 6 37 29
14 32 42 7 65 -13 12 -40 17 -96 18 l-78 2 4 33 4 34 -46 -1 c-25 0 -51 -3
-59 -6z m240 -83 c12 0 19 -7 19 -20 0 -25 -41 -28 -64 -4 -19 18 -11 38 11
30 8 -3 23 -6 34 -6z m-336 -30 c3 -5 2 -10 -4 -10 -6 0 -8 -7 -5 -15 8 -20
-24 -32 -39 -15 -10 10 -8 12 6 7 13 -5 18 -2 16 11 -3 33 12 45 26 22z m15
-40 c-19 -27 -20 -32 -7 -51 11 -15 16 -17 20 -7 3 7 6 3 6 -10 1 -15 5 -21
12 -16 7 4 10 1 7 -6 -7 -21 -28 -24 -28 -3 0 13 -6 8 -20 -15 -25 -41 -51
-39 -64 5 -8 31 -6 36 40 83 27 27 50 50 52 50 2 0 -6 -13 -18 -30z m350 -119
c0 -26 -3 -32 -16 -27 -9 3 -18 6 -20 6 -8 0 -4 42 7 62 15 27 29 7 29 -41z
m-280 28 c0 -5 -4 -9 -10 -9 -5 0 -10 7 -10 16 0 8 5 12 10 9 6 -3 10 -10 10
-16z m215 -45 c6 -10 19 -32 29 -47 10 -15 17 -30 14 -32 -9 -9 -117 -17 -142
-11 -26 6 -26 7 -11 36 11 22 23 30 43 30 26 1 26 1 8 15 -19 14 -18 15 5 24
30 12 41 9 54 -15z m-236 -110 c2 -2 -7 -4 -22 -4 -14 0 -29 5 -32 10 -6 10
42 4 54 -6z"/>
<path d="M1180 4010 c0 -5 4 -10 9 -10 14 0 20 -37 8 -49 -8 -8 -8 -11 1 -11
17 0 21 33 8 63 -9 18 -26 23 -26 7z"/>
<path d="M1500 4000 c0 -5 21 -9 48 -9 42 1 44 2 17 9 -44 11 -65 11 -65 0z"/>
<path d="M1189 3907 c-9 -7 -14 -17 -12 -24 2 -6 -1 -14 -6 -18 -6 -3 -11 -11
-11 -18 0 -6 8 0 17 13 10 14 16 27 14 29 -1 2 3 7 10 12 8 4 11 10 9 13 -3 2
-12 -1 -21 -7z"/>
<path d="M1142 3850 c0 -14 2 -19 5 -12 2 6 2 18 0 25 -3 6 -5 1 -5 -13z"/>
<path d="M1425 3800 c3 -5 10 -10 16 -10 5 0 9 5 9 10 0 6 -7 10 -16 10 -8 0
-12 -4 -9 -10z"/>
<path d="M1839 3363 c-13 -16 -12 -17 4 -4 9 7 17 15 17 17 0 8 -8 3 -21 -13z"/>
<path d="M3075 3184 c-4 -36 -3 -60 4 -67 8 -8 11 8 11 56 0 37 -2 67 -4 67
-2 0 -7 -25 -11 -56z"/>
<path d="M1741 3188 c0 -26 3 -49 7 -52 4 -2 6 12 4 32 -6 62 -10 69 -11 20z"/>
<path d="M1761 3103 c7 -12 15 -20 18 -17 3 2 -3 12 -13 22 -17 16 -18 16 -5
-5z"/>
<path d="M1800 3056 c0 -2 8 -10 18 -17 15 -13 16 -12 3 4 -13 16 -21 21 -21
13z"/>
<path d="M1992 2961 c-11 -6 -10 -10 4 -15 20 -8 32 0 18 14 -5 5 -15 5 -22 1z"/>
<path d="M2094 2815 c20 -46 32 -63 95 -129 69 -74 101 -92 101 -58 0 10 -30
50 -67 88 -38 38 -80 84 -95 102 -36 43 -52 42 -34 -3z"/>
<path d="M2174 2575 c3 -21 16 -31 16 -12 0 9 -4 18 -9 21 -5 4 -8 -1 -7 -9z"/>
<path d="M2294 2575 c11 -8 26 -15 33 -15 22 0 14 8 -19 19 -30 10 -31 9 -14
-4z"/>
<path d="M2351 2556 c10 -9 89 -46 89 -41 0 5 -75 45 -86 45 -4 0 -5 -2 -3 -4z"/>
<path d="M2300 2541 c0 -5 5 -13 10 -16 6 -3 10 -2 10 4 0 5 -4 13 -10 16 -5
3 -10 2 -10 -4z"/>
<path d="M2450 2506 c0 -2 8 -10 18 -17 15 -13 16 -12 3 4 -13 16 -21 21 -21
13z"/>
<path d="M2105 1500 c-8 -13 5 -13 25 0 13 8 13 10 -2 10 -9 0 -20 -4 -23 -10z"/>
<path d="M2075 1480 c-4 -6 66 -33 72 -27 1 2 -13 10 -32 19 -20 9 -37 12 -40
8z"/>
<path d="M2011 1440 c-6 -3 16 -14 49 -24 34 -10 63 -16 66 -14 8 8 -104 46
-115 38z"/>
<path d="M2184 1435 c9 -10 24 -14 33 -11 20 8 16 11 -21 20 -26 6 -27 6 -12
-9z"/>
<path d="M2240 1367 c0 -3 13 -20 29 -37 18 -20 31 -28 35 -21 4 6 2 11 -3 11
-6 0 -11 9 -11 21 0 11 -4 17 -10 14 -6 -4 -17 -1 -25 5 -8 7 -15 10 -15 7z"/>
<path d="M1854 1265 c-9 -22 -19 -33 -26 -29 -7 4 -8 3 -4 -4 5 -9 13 -9 28
-1 11 6 18 7 15 2 -4 -6 9 -26 27 -47 l34 -37 39 18 c21 10 39 18 41 19 2 1
-8 14 -22 29 -14 14 -24 32 -22 38 1 7 1 9 -2 4 -2 -4 -17 4 -34 18 -40 34
-56 32 -74 -10z m36 9 c0 -8 -4 -12 -10 -9 -5 3 -10 10 -10 16 0 5 5 9 10 9 6
0 10 -7 10 -16z m31 -41 c13 -16 12 -17 -3 -4 -17 13 -22 21 -14 21 2 0 10 -8
17 -17z m44 -2 c3 -5 0 -13 -6 -17 -7 -4 -9 -3 -5 4 3 5 0 13 -6 15 -9 4 -10
6 -1 6 6 1 14 -3 18 -8z"/>
<path d="M1155 1227 c-98 -33 -101 -35 -93 -42 3 -3 59 13 124 35 66 22 106
39 89 39 -16 -1 -70 -15 -120 -32z"/>
<path d="M963 1196 c-50 -19 -115 -39 -145 -46 -70 -15 -82 -19 -76 -26 17
-16 318 81 318 102 0 5 8 8 -97 -30z"/>
<path d="M1035 1180 c-3 -5 -1 -10 4 -10 6 0 11 5 11 10 0 6 -2 10 -4 10 -3 0
-8 -4 -11 -10z"/>
<path d="M686 1121 c-3 -4 6 -6 19 -3 14 2 25 6 25 8 0 8 -39 4 -44 -5z"/>
<path d="M790 1040 c-8 -5 -10 -10 -5 -10 6 0 17 5 25 10 8 5 11 10 5 10 -5 0
-17 -5 -25 -10z"/>
<path d="M588 1023 c6 -2 18 -2 25 0 6 3 1 5 -13 5 -14 0 -19 -2 -12 -5z"/>
<path d="M548 1013 c7 -3 16 -2 19 1 4 3 -2 6 -13 5 -11 0 -14 -3 -6 -6z"/>
<path d="M815 949 c-4 -6 -5 -12 -2 -15 2 -3 7 2 10 11 7 17 1 20 -8 4z"/>
<path d="M1058 933 c7 -3 16 -2 19 1 4 3 -2 6 -13 5 -11 0 -14 -3 -6 -6z"/>
<path d="M1012 843 c-6 -2 -10 -9 -7 -14 4 -5 -1 -6 -9 -3 -11 4 -16 0 -16
-10 0 -9 5 -16 11 -16 20 0 49 21 49 35 0 15 -6 17 -28 8z"/>
<path d="M1085 780 c-13 -6 -15 -9 -5 -9 8 0 22 4 30 9 18 12 2 12 -25 0z"/>
<path d="M875 760 c-16 -7 -17 -9 -3 -9 9 -1 20 4 23 9 7 11 7 11 -20 0z"/>
<path d="M1025 730 c-3 -6 1 -7 9 -4 18 7 21 14 7 14 -6 0 -13 -4 -16 -10z"/>
<path d="M1017 688 c-32 -17 -56 -32 -53 -35 4 -4 85 35 116 56 31 22 -7 9
-63 -21z"/>
<path d="M1520 684 c0 -1 6 -7 14 -13 10 -9 15 -8 19 2 3 8 -3 13 -14 13 -11
0 -19 -1 -19 -2z"/>
<path d="M1165 660 c-3 -6 1 -7 9 -4 18 7 21 14 7 14 -6 0 -13 -4 -16 -10z"/>
<path d="M930 644 c0 -8 5 -12 10 -9 6 4 8 11 5 16 -9 14 -15 11 -15 -7z"/>
<path d="M1635 650 c-16 -7 -17 -9 -3 -9 9 -1 20 4 23 9 7 11 7 11 -20 0z"/>
<path d="M1355 635 c-11 -8 -31 -23 -44 -32 -13 -10 -29 -18 -35 -19 -6 -1
-22 -6 -36 -12 l-25 -11 30 1 c24 2 145 71 145 84 0 8 -16 3 -35 -11z"/>
<path d="M734 627 c-2 -7 -14 -14 -26 -14 -11 -1 -26 -7 -32 -13 -8 -8 -4 -9
17 -1 15 6 27 8 27 4 0 -3 8 1 18 9 9 9 24 18 32 21 10 3 7 6 -8 6 -12 1 -25
-5 -28 -12z"/>
<path d="M850 624 l-25 -15 25 7 c14 3 29 10 35 15 15 14 -7 10 -35 -7z"/>
<path d="M801 611 c-7 -5 -23 -7 -35 -4 -19 4 -19 3 -3 -7 19 -12 57 -5 57 11
0 11 -1 11 -19 0z"/>
<path d="M1640 595 c0 -8 4 -15 10 -15 5 0 7 7 4 15 -4 8 -8 15 -10 15 -2 0
-4 -7 -4 -15z"/>
<path d="M1180 590 c-9 -6 -10 -10 -3 -10 6 0 15 5 18 10 8 12 4 12 -15 0z"/>
<path d="M795 582 c-11 -2 -24 -8 -30 -14 -9 -9 43 -1 54 8 8 7 -4 10 -24 6z"/>
<path d="M1196 575 c-11 -8 -15 -15 -9 -15 6 0 16 7 23 15 16 19 11 19 -14 0z"/>
<path d="M3179 3543 c6 -10 22 -31 36 -48 22 -25 22 -23 -5 18 -30 45 -51 66
-31 30z"/>
<path d="M3086 3527 c3 -10 9 -15 12 -12 3 3 0 11 -7 18 -10 9 -11 8 -5 -6z"/>
<path d="M1392 3355 c-9 -20 -18 -24 -49 -22 -34 2 -38 -1 -41 -25 -2 -19 2
-28 17 -33 29 -9 26 -25 -4 -25 -16 0 -25 -6 -25 -15 0 -11 11 -15 41 -15 l42
0 -7 39 -6 38 44 0 c43 0 44 -1 44 -33 0 -18 3 -37 7 -43 3 -6 2 -11 -4 -11
-5 0 -14 8 -20 18 -9 16 -10 16 -17 -2 -8 -22 18 -46 49 -46 17 0 18 6 12 76
-6 56 -13 83 -28 100 -26 31 -41 30 -55 -1z"/>
<path d="M655 3290 c3 -5 13 -10 21 -10 8 0 14 5 14 10 0 6 -9 10 -21 10 -11
0 -17 -4 -14 -10z"/>
<path d="M841 2724 c0 -11 3 -14 6 -6 3 7 2 16 -1 19 -3 4 -6 -2 -5 -13z"/>
<path d="M788 2703 c7 -3 16 -2 19 1 4 3 -2 6 -13 5 -11 0 -14 -3 -6 -6z"/>
<path d="M1051 2700 c0 -8 4 -24 9 -35 5 -13 9 -14 9 -5 0 8 -4 24 -9 35 -5
13 -9 14 -9 5z"/>
<path d="M852 2675 c0 -16 2 -22 5 -12 2 9 2 23 0 30 -3 6 -5 -1 -5 -18z"/>
<path d="M788 2673 c6 -2 18 -2 25 0 6 3 1 5 -13 5 -14 0 -19 -2 -12 -5z"/>
<path d="M810 2656 c0 -2 7 -7 16 -10 8 -3 12 -2 9 4 -6 10 -25 14 -25 6z"/>
<path d="M778 2643 c7 -3 16 -2 19 1 4 3 -2 6 -13 5 -11 0 -14 -3 -6 -6z"/>
<path d="M855 2631 c-3 -5 -1 -12 5 -16 6 -4 7 -11 4 -17 -4 -6 -2 -8 4 -5 5
4 8 16 5 27 -6 22 -9 24 -18 11z"/>
<path d="M1066 2627 c3 -10 9 -15 12 -12 3 3 0 11 -7 18 -10 9 -11 8 -5 -6z"/>
<path d="M780 2611 c0 -4 11 -6 25 -3 14 2 25 6 25 8 0 2 -11 4 -25 4 -14 0
-25 -4 -25 -9z"/>
<path d="M987 2600 c3 -11 9 -20 15 -20 5 0 4 9 -2 20 -6 11 -12 20 -14 20 -2
0 -2 -9 1 -20z"/>
<path d="M787 2588 c-7 -5 -2 -8 15 -8 15 0 29 4 33 9 6 11 -30 10 -48 -1z"/>
<path d="M916 2580 c4 -14 8 -32 8 -41 0 -9 6 -16 12 -16 8 0 7 11 -3 36 -18
43 -29 56 -17 21z"/>
<path d="M1076 2585 c4 -8 8 -15 10 -15 2 0 4 7 4 15 0 8 -4 15 -10 15 -5 0
-7 -7 -4 -15z"/>
<path d="M955 2580 c3 -5 8 -10 11 -10 2 0 4 5 4 10 0 6 -5 10 -11 10 -5 0 -7
-4 -4 -10z"/>
<path d="M1168 2583 c6 -2 18 -2 25 0 6 3 1 5 -13 5 -14 0 -19 -2 -12 -5z"/>
<path d="M864 2560 c0 -11 4 -20 8 -20 4 0 8 9 8 20 0 11 -4 20 -8 20 -4 0 -8
-9 -8 -20z"/>
<path d="M808 2563 c6 -2 18 -2 25 0 6 3 1 5 -13 5 -14 0 -19 -2 -12 -5z"/>
<path d="M1005 2560 c3 -5 8 -10 11 -10 2 0 4 5 4 10 0 6 -5 10 -11 10 -5 0
-7 -4 -4 -10z"/>
<path d="M810 2540 c-9 -6 -10 -10 -3 -10 6 0 15 5 18 10 8 12 4 12 -15 0z"/>
<path d="M901 2524 c0 -11 3 -14 6 -6 3 7 2 16 -1 19 -3 4 -6 -2 -5 -13z"/>
<path d="M1020 2532 c0 -7 5 -22 11 -33 9 -17 6 -21 -21 -30 -17 -6 -29 -13
-27 -15 4 -4 67 16 67 21 0 11 -29 67 -30 57z"/>
<path d="M875 2521 c-3 -5 -2 -12 3 -15 5 -3 9 1 9 9 0 17 -3 19 -12 6z"/>
<path d="M818 2513 c6 -2 18 -2 25 0 6 3 1 5 -13 5 -14 0 -19 -2 -12 -5z"/>
<path d="M815 2490 c-4 -7 3 -8 22 -4 38 9 42 14 10 14 -14 0 -29 -5 -32 -10z"/>
<path d="M910 2491 c0 -5 5 -13 10 -16 6 -3 10 -2 10 4 0 5 -4 13 -10 16 -5 3
-10 2 -10 -4z"/>
<path d="M828 2463 c7 -3 16 -2 19 1 4 3 -2 6 -13 5 -11 0 -14 -3 -6 -6z"/>
<path d="M925 2450 c3 -5 8 -10 11 -10 2 0 4 5 4 10 0 6 -5 10 -11 10 -5 0 -7
-4 -4 -10z"/>
<path d="M830 2440 c0 -5 5 -10 10 -10 6 0 10 5 10 10 0 6 -4 10 -10 10 -5 0
-10 -4 -10 -10z"/>
<path d="M1131 2430 c0 -8 4 -22 9 -30 12 -18 12 -2 0 25 -6 13 -9 15 -9 5z"/>
<path d="M1067 2405 c3 -16 12 -41 20 -55 l14 -25 -7 25 c-4 14 -12 39 -20 55
l-13 30 6 -30z"/>
<path d="M838 2413 c6 -2 18 -2 25 0 6 3 1 5 -13 5 -14 0 -19 -2 -12 -5z"/>
<path d="M940 2403 c0 -5 5 -15 11 -23 9 -13 10 -13 5 2 -3 10 1 18 12 21 12
3 11 5 -5 6 -13 0 -23 -2 -23 -6z"/>
<path d="M855 2390 c3 -5 8 -10 11 -10 2 0 4 5 4 10 0 6 -5 10 -11 10 -5 0 -7
-4 -4 -10z"/>
<path d="M840 2366 c0 -2 9 -6 20 -9 11 -3 20 -1 20 4 0 5 -9 9 -20 9 -11 0
-20 -2 -20 -4z"/>
<path d="M958 2353 c7 -3 16 -2 19 1 4 3 -2 6 -13 5 -11 0 -14 -3 -6 -6z"/>
<path d="M1018 2353 c7 -3 16 -2 19 1 4 3 -2 6 -13 5 -11 0 -14 -3 -6 -6z"/>
<path d="M966 2325 c4 -8 10 -15 15 -15 4 0 6 7 3 15 -4 8 -10 15 -15 15 -4 0
-6 -7 -3 -15z"/>
<path d="M1170 2310 c5 -18 12 -35 16 -39 9 -9 -7 53 -17 63 -5 5 -4 -5 1 -24z"/>
<path d="M1104 2300 c5 -41 40 -150 49 -150 5 0 6 4 3 8 -3 5 -7 19 -10 33 -8
39 -46 137 -42 109z"/>
<path d="M984 2265 c6 -19 14 -35 18 -35 3 0 1 16 -5 35 -6 19 -13 35 -17 35
-4 0 -2 -16 4 -35z"/>
<path d="M1020 2270 c-13 -8 -13 -10 2 -10 9 0 20 5 23 10 8 13 -5 13 -25 0z"/>
<path d="M1258 2273 c7 -3 16 -2 19 1 4 3 -2 6 -13 5 -11 0 -14 -3 -6 -6z"/>
<path d="M890 2250 c-13 -8 -12 -10 3 -10 9 0 17 5 17 10 0 12 -1 12 -20 0z"/>
<path d="M1030 2250 c-12 -8 -10 -10 8 -10 13 0 20 4 17 10 -7 12 -6 12 -25 0z"/>
<path d="M1187 2239 c4 -13 8 -18 11 -10 2 7 -1 18 -6 23 -8 8 -9 4 -5 -13z"/>
<path d="M930 2230 c0 -5 5 -10 11 -10 5 0 7 5 4 10 -3 6 -8 10 -11 10 -2 0
-4 -4 -4 -10z"/>
<path d="M885 2220 c-3 -5 -2 -10 4 -10 5 0 13 5 16 10 3 6 2 10 -4 10 -5 0
-13 -4 -16 -10z"/>
<path d="M1050 2219 c0 -5 5 -7 10 -4 6 3 10 8 10 11 0 2 -4 4 -10 4 -5 0 -10
-5 -10 -11z"/>
<path d="M1088 2223 c7 -3 16 -2 19 1 4 3 -2 6 -13 5 -11 0 -14 -3 -6 -6z"/>
<path d="M1000 2200 c0 -11 4 -20 9 -20 6 0 9 9 8 20 -1 11 -5 20 -9 20 -4 0
-8 -9 -8 -20z"/>
<path d="M935 2200 c-3 -5 -1 -10 4 -10 6 0 11 5 11 10 0 6 -2 10 -4 10 -3 0
-8 -4 -11 -10z"/>
<path d="M1202 2195 c0 -11 3 -29 8 -40 11 -25 11 1 0 35 -6 20 -8 21 -8 5z"/>
<path d="M888 2193 c6 -2 18 -2 25 0 6 3 1 5 -13 5 -14 0 -19 -2 -12 -5z"/>
<path d="M1258 2193 c7 -3 16 -2 19 1 4 3 -2 6 -13 5 -11 0 -14 -3 -6 -6z"/>
<path d="M935 2170 c-3 -5 -1 -10 4 -10 6 0 11 5 11 10 0 6 -2 10 -4 10 -3 0
-8 -4 -11 -10z"/>
<path d="M1060 2170 c0 -5 5 -10 10 -10 6 0 10 5 10 10 0 6 -4 10 -10 10 -5 0
-10 -4 -10 -10z"/>
<path d="M888 2163 c6 -2 18 -2 25 0 6 3 1 5 -13 5 -14 0 -19 -2 -12 -5z"/>
<path d="M1010 2160 c0 -5 5 -10 11 -10 5 0 7 5 4 10 -3 6 -8 10 -11 10 -2 0
-4 -4 -4 -10z"/>
<path d="M1378 2153 c7 -3 16 -2 19 1 4 3 -2 6 -13 5 -11 0 -14 -3 -6 -6z"/>
<path d="M937 2131 c-3 -13 0 -18 7 -15 7 3 13 11 13 19 0 22 -14 18 -20 -4z"/>
<path d="M1078 2143 c7 -3 16 -2 19 1 4 3 -2 6 -13 5 -11 0 -14 -3 -6 -6z"/>
<path d="M898 2133 c7 -3 16 -2 19 1 4 3 -2 6 -13 5 -11 0 -14 -3 -6 -6z"/>
<path d="M1017 2120 c3 -11 9 -20 13 -20 5 0 6 9 3 20 -3 11 -9 20 -13 20 -5
0 -6 -9 -3 -20z"/>
<path d="M1154 2120 c4 -14 8 -31 8 -37 1 -7 5 -13 10 -13 10 0 -1 51 -15 65
-6 7 -7 2 -3 -15z"/>
<path d="M1078 2113 c7 -3 16 -2 19 1 4 3 -2 6 -13 5 -11 0 -14 -3 -6 -6z"/>
<path d="M1221 2104 c0 -11 3 -14 6 -6 3 7 2 16 -1 19 -3 4 -6 -2 -5 -13z"/>
<path d="M940 2100 c-12 -8 -10 -10 8 -10 13 0 20 4 17 10 -7 12 -6 12 -25 0z"/>
<path d="M1298 2103 c7 -3 16 -2 19 1 4 3 -2 6 -13 5 -11 0 -14 -3 -6 -6z"/>
<path d="M1085 2090 c-3 -5 -2 -10 4 -10 5 0 13 5 16 10 3 6 2 10 -4 10 -5 0
-13 -4 -16 -10z"/>
<path d="M1030 2080 c0 -5 5 -10 11 -10 5 0 7 5 4 10 -3 6 -8 10 -11 10 -2 0
-4 -4 -4 -10z"/>
<path d="M950 2070 c-13 -8 -12 -10 3 -10 9 0 17 5 17 10 0 12 -1 12 -20 0z"/>
<path d="M1041 2050 c0 -8 4 -24 9 -35 5 -13 9 -14 9 -5 0 8 -4 24 -9 35 -5
13 -9 14 -9 5z"/>
<path d="M1175 2050 c3 -5 8 -10 11 -10 2 0 4 5 4 10 0 6 -5 10 -11 10 -5 0
-7 -4 -4 -10z"/>
<path d="M934 2043 c20 -5 46 -27 46 -37 0 -3 -7 -6 -15 -6 -8 0 -15 -4 -15
-9 0 -5 9 -7 20 -4 37 10 18 57 -25 60 -18 1 -22 -1 -11 -4z"/>
<path d="M1190 2000 c0 -5 5 -10 11 -10 5 0 7 5 4 10 -3 6 -8 10 -11 10 -2 0
-4 -4 -4 -10z"/>
<path d="M1061 1974 c0 -11 3 -14 6 -6 3 7 2 16 -1 19 -3 4 -6 -2 -5 -13z"/>
<path d="M975 1969 c-18 -7 -18 -8 5 -9 l25 -1 -25 -14 c-24 -14 -24 -14 -3
-15 26 0 37 14 26 34 -5 9 -15 11 -28 5z"/>
<path d="M1070 1935 c0 -8 4 -15 10 -15 5 0 7 7 4 15 -4 8 -8 15 -10 15 -2 0
-4 -7 -4 -15z"/>
<path d="M995 1920 c-3 -5 -1 -10 5 -10 7 0 10 -7 6 -15 -3 -8 -1 -15 4 -15
13 0 13 37 1 45 -5 3 -12 1 -16 -5z"/>
<path d="M958 1903 c7 -3 16 -2 19 1 4 3 -2 6 -13 5 -11 0 -14 -3 -6 -6z"/>
<path d="M1091 1874 c0 -11 3 -14 6 -6 3 7 2 16 -1 19 -3 4 -6 -2 -5 -13z"/>
<path d="M1018 1864 c-3 -5 -2 -18 2 -28 3 -11 9 -15 12 -10 3 5 2 18 -2 28
-3 11 -9 15 -12 10z"/>
<path d="M968 1843 c7 -3 16 -2 19 1 4 3 -2 6 -13 5 -11 0 -14 -3 -6 -6z"/>
<path d="M1095 1840 c-3 -5 -1 -10 4 -10 6 0 11 5 11 10 0 6 -2 10 -4 10 -3 0
-8 -4 -11 -10z"/>
<path d="M968 1813 c6 -2 18 -2 25 0 6 3 1 5 -13 5 -14 0 -19 -2 -12 -5z"/>
<path d="M1105 1810 c-8 -13 5 -13 25 0 13 8 13 10 -2 10 -9 0 -20 -4 -23 -10z"/>
<path d="M1668 1793 c7 -3 16 -2 19 1 4 3 -2 6 -13 5 -11 0 -14 -3 -6 -6z"/>
<path d="M968 1783 c6 -2 18 -2 25 0 6 3 1 5 -13 5 -14 0 -19 -2 -12 -5z"/>
<path d="M970 1750 c-8 -5 -10 -10 -5 -10 6 0 17 5 25 10 8 5 11 10 5 10 -5 0
-17 -5 -25 -10z"/>
<path d="M1046 1720 c8 -43 14 -51 14 -19 0 13 -5 31 -10 39 -7 11 -8 5 -4
-20z"/>
<path d="M980 1720 c-8 -5 -10 -10 -5 -10 6 0 17 5 25 10 8 5 11 10 5 10 -5 0
-17 -5 -25 -10z"/>
<path d="M1164 1704 c-19 -15 -19 -15 1 -6 11 5 27 12 35 15 13 5 13 6 -1 6
-8 1 -24 -6 -35 -15z"/>
<path d="M995 1690 c-16 -7 -17 -9 -3 -9 9 -1 20 4 23 9 7 11 7 11 -20 0z"/>
<path d="M1258 1693 c7 -3 16 -2 19 1 4 3 -2 6 -13 5 -11 0 -14 -3 -6 -6z"/>
<path d="M1165 1670 c-7 -12 2 -12 30 0 19 8 19 9 -2 9 -12 1 -25 -3 -28 -9z"/>
<path d="M1185 1640 c-8 -13 5 -13 25 0 13 8 13 10 -2 10 -9 0 -20 -4 -23 -10z"/>
<path d="M988 1633 c7 -3 16 -2 19 1 4 3 -2 6 -13 5 -11 0 -14 -3 -6 -6z"/>
<path d="M988 1593 c7 -3 16 -2 19 1 4 3 -2 6 -13 5 -11 0 -14 -3 -6 -6z"/>
<path d="M2198 1203 c6 -2 18 -2 25 0 6 3 1 5 -13 5 -14 0 -19 -2 -12 -5z"/>
<path d="M2200 1176 c0 -9 40 -13 46 -5 3 5 -6 9 -20 9 -14 0 -26 -2 -26 -4z"/>
<path d="M367 1033 c-4 -3 -7 -11 -7 -17 0 -6 5 -5 12 2 6 6 9 14 7 17 -3 3
-9 2 -12 -2z"/>
<path d="M700 660 c-9 -6 -10 -10 -3 -10 6 0 15 5 18 10 8 12 4 12 -15 0z"/>
</g>
</svg>
